<?xml version="1.0" ?><!DOCTYPE svg  PUBLIC '-//W3C//DTD SVG 1.1//EN'  'http://www.w3.org/Graphics/SVG/1.1/DTD/svg11.dtd'><svg enable-background="new -208.5 21 100 100" id="Layer_1" version="1.1" viewBox="-208.5 21 100 100" xml:space="preserve" xmlns="http://www.w3.org/2000/svg" xmlns:sketch="http://www.bohemiancoding.com/sketch/ns" xmlns:xlink="http://www.w3.org/1999/xlink"><g><rect fill="#F5EEE5" height="100" width="100" x="-208.5" y="21"/><path d="M-108.5,121v-14c0,0-21.2-4.9-28-6.7c-2.5-0.7-7-3.3-7-12c0-1.7,0-6.3,0-6.3h-15h-15    c0,0,0,4.6,0,6.3c0,8.7-4.5,11.3-7,12c-6.8,1.9-28.1,7.3-28.1,6.7v14h50.1H-108.5z" fill="#E6C19C" id="Mask_3_"/><g><defs><path d="M-108.5,121v-14c0,0-21.2-4.9-28-6.7c-2.5-0.7-7-3.3-7-12c0-1.7,0-6.3,0-6.3h-15h-15c0,0,0,4.6,0,6.3      c0,8.7-4.5,11.3-7,12c-6.8,1.9-28.1,7.3-28.1,6.7v14h50.1H-108.5z" id="Mask_1_"/></defs><clipPath id="Mask_4_"><use overflow="visible" xlink:href="#Mask_1_"/></clipPath><path clip-path="url(#Mask_4_)" d="M-158.5,100.1c12.7,0,23-18.6,23-34.4     c0-16.2-10.3-24.7-23-24.7s-23,8.5-23,24.7C-181.5,81.5-171.2,100.1-158.5,100.1z" fill="#D4B08C" id="head-shadow"/></g><circle cx="-158.5" cy="71" fill="none" id="Mask_2_" r="50"/><path d="M-158.5,96c12.7,0,23-16.3,23-31c0-15.1-10.3-23-23-23s-23,7.9-23,23    C-181.5,79.7-171.2,96-158.5,96z" fill="#F2CEA5" id="head"/></g></svg>